<svg xmlns="http://www.w3.org/2000/svg" viewBox="0 0 512 512">
  <defs>
    <linearGradient id="g" x1="0" y1="0" x2="1" y2="1">
      <stop offset="0%" stop-color="#f7ffe4" />
      <stop offset="100%" stop-color="#d8f7f0" />
    </linearGradient>
  </defs>
  <rect width="512" height="512" rx="96" fill="url(#g)" />
  <path d="M256 370c-8 0-14-6-14-14V212c0-8 6-14 14-14s14 6 14 14v144c0 8-6 14-14 14z" fill="#4d8f56"/>
  <path d="M250 238c-60 0-94-56-80-114 54 4 104 44 104 104 0 6-4 10-10 10h-14z" fill="#2f8b58"/>
  <path d="M262 238c60 0 94-56 80-114-54 4-104 44-104 104 0 6 4 10 10 10h14z" fill="#3a8d60"/>
  <rect x="182" y="358" width="148" height="24" rx="12" fill="#a96435"/>
  <path d="M194 382h124l-12 58h-100z" fill="#8c4f2a"/>
</svg>
